<svg width="100" height="24" viewBox="0 0 100 24" fill="none" xmlns="http://www.w3.org/2000/svg">
<path d="M8.06458 9.33059C12.4676 7.81296 13.217 3.85966 12.6549 0.224862C12.6549 0.0937092 12.7673 2.88561e-05 12.8797 0.037501C17.0954 2.09847 21.8356 6.59512 21.8356 13.3401C21.8356 18.5112 17.8261 23.0828 11.9992 23.0828C9.91994 23.1774 7.86845 22.5768 6.16847 21.3759C4.4685 20.175 3.21686 18.4422 2.6111 16.4509C2.00534 14.4597 2.07997 12.3234 2.82321 10.3792C3.56644 8.43513 4.93595 6.79387 6.71558 5.71453C6.828 5.63958 6.97788 5.71453 6.97788 5.84568C7.03409 6.53891 7.22145 8.28137 7.98963 9.33059H8.06458Z" fill="url(#paint0_radial_57_8)"/>
<path d="M34.2389 18.9796L34.5574 18.6049L35.5504 21.7526L35.4193 21.8837C34.6698 22.577 33.5457 22.9329 32.103 22.9329H32.0468C30.7352 22.9329 29.7048 22.5582 28.9928 21.865C28.2808 21.153 27.9061 20.0851 27.9061 18.7361V10.1549H25.3767V6.6888H27.9061V2.51065H31.8032V6.6888H34.8946V10.1549H31.7845V17.8929C31.7845 18.2489 31.8781 19.3918 32.9648 19.3918C33.5269 19.3918 34.0515 19.1857 34.2389 18.9609V18.9796ZM36.2999 22.577V6.70753H40.197V22.577H36.2999ZM38.2297 0.224854C38.6921 0.224868 39.1441 0.361765 39.5288 0.618289C39.9136 0.874814 40.2138 1.23948 40.3916 1.66634C40.5693 2.09319 40.6168 2.56313 40.528 3.01692C40.4391 3.4707 40.2179 3.88803 39.8922 4.2163C39.5666 4.54457 39.151 4.76909 38.6979 4.86156C38.2449 4.95403 37.7746 4.91032 37.3463 4.73593C36.9181 4.56153 36.551 4.26427 36.2914 3.8816C36.0319 3.49893 35.8914 3.04799 35.8877 2.5856C35.8877 1.31154 36.9556 0.224854 38.2297 0.224854ZM50.6704 6.31407C54.0429 6.31407 55.8978 8.15021 55.8978 11.5039V22.5582H52.0007V12.4407C51.9257 10.6421 51.0639 9.81772 49.2277 9.81772C47.579 9.81772 46.2487 10.8294 45.5742 11.6913V22.5582H41.6771V6.72627H45.5742V8.41251C46.6984 7.32582 48.497 6.35155 50.6704 6.35155V6.31407ZM68.8631 8.35631V0.899352H72.7602V22.5957H68.8631V20.9469C68.2668 21.5759 67.5494 22.0777 66.7541 22.4222C65.9588 22.7668 65.102 22.9469 64.2353 22.9517C59.9822 22.9517 57.1343 19.6167 57.1343 14.6516C57.1343 9.66783 59.9822 6.33281 64.2353 6.33281C65.1039 6.33677 65.9625 6.51832 66.7583 6.8663C67.5542 7.21428 68.2704 7.72134 68.8631 8.35631ZM68.8631 11.71C68.4288 11.1444 67.8738 10.6827 67.2386 10.3586C66.6033 10.0345 65.9037 9.8561 65.1909 9.83646C62.7739 9.83646 61.1626 11.7663 61.1626 14.6516C61.1626 17.5182 62.7739 19.448 65.1909 19.448C66.5961 19.448 68.1324 18.6986 68.8631 17.6119V11.71ZM81.8659 6.33281C86.475 6.33281 89.6789 9.89266 89.6789 14.9514V16.0193H77.8939C78.2874 18.2489 80.0485 19.6729 82.4468 19.6729C83.9644 19.6729 85.6319 19.0171 86.5874 18.0616L86.8497 17.8367L88.7046 20.4973L88.5172 20.6659C86.7616 22.2225 84.4729 23.0414 82.1282 22.9517C77.2569 22.9517 73.8282 19.523 73.8282 14.6329C73.7903 13.5532 73.971 12.4771 74.3593 11.469C74.7477 10.4609 75.3357 9.54166 76.0882 8.76648C76.8406 7.99129 77.7419 7.37613 78.738 6.95793C79.7341 6.53973 80.8044 6.3271 81.8847 6.33281H81.8659ZM77.8752 13.0778H85.8755C85.6506 10.6983 83.6833 9.61162 81.8659 9.61162C79.1305 9.61162 78.1 11.6726 77.8752 13.0965V13.0778ZM99.1031 6.33281H99.3842V10.2674L99.0469 10.2112C98.7659 10.1549 98.4099 10.1175 98.0539 10.1175C96.7986 10.1175 95.0561 10.9981 94.4004 11.9349V22.5582H90.5033V6.70753H94.4191V8.46872C95.7119 7.11973 97.4169 6.33281 99.1031 6.33281Z" fill="#ADADAD"/>
<defs>
<radialGradient id="paint0_radial_57_8" cx="0" cy="0" r="1" gradientUnits="userSpaceOnUse" gradientTransform="translate(12.0206 23.0925) scale(19.63 23.0634)">
<stop stop-color="#FF7854"/>
<stop offset="1" stop-color="#FD267D"/>
</radialGradient>
</defs>
</svg>
